3100 0 2 0           
20 CST MICROWAVE STUDIO 14 ACIS 31.0.1 NT 24 Mon Mar 27 16:30:10 2023 
1 9.9999999999999995e-07 1e-10 
T @77 39ZMRNPWGHZRV9D_8TPFN_7H47NBZPQ8DCG4PGQ53BVMPEQXJA_4GA7AUAGVSG56K8SUEM5FQBMMN 
name_attrib-gen-attrib $-1 -1 $-1 $-1 $-1 2 1 1 1 1 1 1 1 1 1 1 1 1 1 1 1 1 1 @17 VirtualBackground #
body $2 -1 -1 $-1 0 $3 $-1 $-1 T -42.50000000000005 270 -199.98868770766686 42.50000000000005 285 200.01131229233317 #
rgb_color-st-attrib $-1 -1 $4 $-1 $1 2 1 2 1 1 1 1 1 1 1 1 1 1 1 0 1 1 1 1 0.50196099281311035 0 #
lump $-1 -1 -1 $-1 $-1 $5 $1 T -42.50000000000005 270 -199.98868770766686 42.50000000000005 285 200.01131229233317 #
name_attrib-gen-attrib $-1 -1 $6 $2 $1 2 1 1 1 1 1 1 1 1 1 1 1 1 1 0 1 1 1 @27 c1.000000 0.501961 0.000000 #
shell $-1 -1 -1 $-1 $-1 $-1 $7 $-1 $3 T -42.50000000000005 270 -199.98868770766686 42.50000000000005 285 200.01131229233317 #
integer_attrib-name_attrib-gen-attrib $-1 -1 $8 $4 $1 2 1 1 1 1 1 1 1 1 1 1 1 1 1 0 1 1 1 @4 type 6 #
face $9 -1 -1 $-1 $10 $11 $5 $-1 $12 forward single T -42.50000000000005 270 200.01131229233317 42.499999999999957 285 200.01131229233317 F #
name_attrib-gen-attrib $-1 -1 $13 $6 $1 2 1 1 1 1 1 1 1 1 1 1 1 1 1 0 1 1 1 @9 mLWA/Foam #
integer_attrib-name_attrib-gen-attrib $-1 -1 $14 $-1 $7 2 0 0 1 1 1 1 1 1 1 1 1 1 1 0 1 1 1 @3 fif 0 #
face $15 -1 -1 $-1 $16 $17 $5 $-1 $18 reversed single T -42.499999999999957 270 -199.98868770766683 42.50000000000005 285 -199.98868770766683 F #
loop $-1 -1 -1 $-1 $-1 $19 $7 T -42.50000000000005 270 200.01131229233317 42.499999999999957 285 200.01131229233317 unknown #
plane-surface $-1 -1 -1 $-1 -4.8987257322153801e-14 277.5 200.01131229233317 -2.4492935982947059e-16 0 1 10 0 2.4492935982947061e-15 forward_v I I I I #
name_attrib-gen-attrib $-1 -1 $20 $8 $1 2 1 1 1 1 1 1 1 1 1 1 1 1 1 0 1 1 1 @17 nLWA/Model:solid1 #
integer_attrib-name_attrib-gen-attrib $-1 -1 $-1 $9 $7 2 1 1 1 1 1 1 1 1 1 1 1 1 1 0 1 1 1 @3 pid 1 #
integer_attrib-name_attrib-gen-attrib $-1 -1 $21 $-1 $10 2 0 0 1 1 1 1 1 1 1 1 1 1 1 0 1 1 1 @3 fif 0 #
face $22 -1 -1 $-1 $23 $24 $5 $-1 $25 reversed single T -42.50000000000005 270 -199.98868770766686 42.50000000000005 270 200.01131229233317 F #
loop $-1 -1 -1 $-1 $-1 $26 $10 T -42.499999999999957 270 -199.98868770766683 42.50000000000005 285 -199.98868770766683 unknown #
plane-surface $-1 -1 -1 $-1 4.8984486609634431e-14 277.5 -199.98868770766683 -2.4492935982947059e-16 0 1 10 0 2.4492935982947061e-15 forward_v I I I I #
coedge $-1 -1 -1 $-1 $27 $28 $29 $30 forward $11 $-1 #
integer_attrib-name_attrib-gen-attrib $-1 -1 $31 $13 $1 2 1 1 1 1 1 1 1 1 1 1 1 1 1 0 1 1 1 @3 noe 12 #
integer_attrib-name_attrib-gen-attrib $-1 -1 $-1 $15 $10 2 1 1 1 1 1 1 1 1 1 1 1 1 1 0 1 1 1 @3 pid 2 #
integer_attrib-name_attrib-gen-attrib $-1 -1 $32 $-1 $16 2 0 0 1 1 1 1 1 1 1 1 1 1 1 0 1 1 1 @3 fif 0 #
face $33 -1 -1 $-1 $34 $35 $5 $-1 $36 reversed single T -42.50000000000005 270 -199.98868770766686 -42.49999999999995 285 200.01131229233317 F #
loop $-1 -1 -1 $-1 $-1 $37 $16 T -42.50000000000005 270 -199.98868770766686 42.50000000000005 270 200.01131229233317 unknown #
plane-surface $-1 -1 -1 $-1 -1.3853562596833952e-18 270 0.011312292333168507 0 1 0 -2.4492935982947061e-15 0 10 forward_v I I I I #
coedge $-1 -1 -1 $-1 $38 $39 $40 $41 forward $17 $-1 #
coedge $-1 -1 -1 $-1 $42 $19 $43 $44 forward $11 $-1 #
coedge $-1 -1 -1 $-1 $19 $42 $45 $46 forward $11 $-1 #
coedge $-1 -1 -1 $-1 $47 $48 $19 $30 reversed $49 $-1 #
edge $50 -1 -1 $-1 $51 -0.75 $52 0.75 $29 $53 forward @7 unknown T 42.499999999999957 270 200.01131229233317 42.499999999999957 285 200.01131229233317 #
integer_attrib-name_attrib-gen-attrib $-1 -1 $-1 $20 $1 2 1 1 1 1 1 1 1 1 1 1 1 1 1 0 1 1 1 @3 nof 6 #
integer_attrib-name_attrib-gen-attrib $-1 -1 $-1 $22 $16 2 1 1 1 1 1 1 1 1 1 1 1 1 1 0 1 1 1 @3 pid 3 #
integer_attrib-name_attrib-gen-attrib $-1 -1 $54 $-1 $23 2 0 0 1 1 1 1 1 1 1 1 1 1 1 0 1 1 1 @3 fif 0 #
face $55 -1 -1 $-1 $56 $57 $5 $-1 $58 reversed single T -42.50000000000005 285 -199.98868770766686 42.50000000000005 285 200.01131229233317 F #
loop $-1 -1 -1 $-1 $-1 $59 $23 T -42.50000000000005 270 -199.98868770766686 -42.49999999999995 285 200.01131229233317 unknown #
plane-surface $-1 -1 -1 $-1 -42.5 277.5 0.011312292333158098 1 0 2.4492935982947059e-16 2.4492935982947061e-15 0 -10 forward_v I I I I #
coedge $-1 -1 -1 $-1 $60 $45 $61 $62 forward $24 $-1 #
coedge $-1 -1 -1 $-1 $63 $26 $60 $64 forward $17 $-1 #
coedge $-1 -1 -1 $-1 $26 $63 $65 $66 forward $17 $-1 #
coedge $-1 -1 -1 $-1 $48 $47 $26 $41 reversed $49 $-1 #
edge $67 -1 -1 $-1 $68 -0.75 $69 0.75 $40 $70 forward @7 unknown T 42.500000000000043 270 -199.98868770766683 42.500000000000043 285 -199.98868770766683 #
coedge $-1 -1 -1 $-1 $28 $27 $71 $72 forward $11 $-1 #
coedge $-1 -1 -1 $-1 $73 $74 $27 $44 reversed $57 $-1 #
edge $75 -1 -1 $-1 $52 -4.25 $76 4.25 $43 $77 forward @7 unknown T -42.50000000000005 285 200.01131229233317 42.499999999999957 285 200.01131229233317 #
coedge $-1 -1 -1 $-1 $37 $78 $28 $46 reversed $24 $-1 #
edge $79 -1 -1 $-1 $80 -4.25 $51 4.25 $45 $81 forward @7 unknown T -42.50000000000005 270 200.01131229233317 42.499999999999957 270 200.01131229233317 #
coedge $-1 -1 -1 $-1 $40 $29 $78 $82 forward $49 $-1 #
coedge $-1 -1 -1 $-1 $29 $40 $73 $83 reversed $49 $-1 #
loop $-1 -1 -1 $-1 $-1 $47 $56 T 42.49999999999995 270 -199.98868770766683 42.50000000000005 285 200.01131229233317 unknown #
name_attrib-gen-attrib $-1 -1 $84 $-1 $30 2 1 1 1 1 1 1 1 1 1 1 1 1 1 0 1 1 1 @3 eif #
vertex $85 -1 -1 $-1 $30 $86 #
vertex $87 -1 -1 $-1 $30 $88 #
straight-curve $-1 -1 -1 $-1 42.499999999999957 277.5 200.01131229233317 0 10 0 I I #
integer_attrib-name_attrib-gen-attrib $-1 -1 $-1 $33 $23 2 1 1 1 1 1 1 1 1 1 1 1 1 1 0 1 1 1 @3 pid 4 #
integer_attrib-name_attrib-gen-attrib $-1 -1 $89 $-1 $34 2 0 0 1 1 1 1 1 1 1 1 1 1 1 0 1 1 1 @3 fif 0 #
face $90 -1 -1 $-1 $-1 $49 $5 $-1 $91 reversed single T 42.49999999999995 270 -199.98868770766683 42.50000000000005 285 200.01131229233317 F #
loop $-1 -1 -1 $-1 $-1 $73 $34 T -42.50000000000005 285 -199.98868770766686 42.50000000000005 285 200.01131229233317 unknown #
plane-surface $-1 -1 -1 $-1 -1.3853562596833952e-18 285 0.011312292333168507 0 -1 -0 2.4492935982947061e-15 0 -10 forward_v I I I I #
coedge $-1 -1 -1 $-1 $92 $71 $74 $93 forward $35 $-1 #
coedge $-1 -1 -1 $-1 $78 $37 $38 $64 reversed $24 $-1 #
coedge $-1 -1 -1 $-1 $71 $92 $37 $62 reversed $35 $-1 #
edge $94 -1 -1 $-1 $80 -20 $95 20 $61 $96 forward @7 unknown T -42.50000000000005 270 -199.98868770766686 -42.49999999999995 270 200.01131229233317 #
coedge $-1 -1 -1 $-1 $39 $38 $92 $97 forward $17 $-1 #
edge $98 -1 -1 $-1 $69 -4.25 $95 4.25 $60 $99 forward @7 unknown T -42.499999999999957 270 -199.98868770766683 42.50000000000005 270 -199.98868770766683 #
coedge $-1 -1 -1 $-1 $74 $73 $39 $66 reversed $57 $-1 #
edge $100 -1 -1 $-1 $101 -4.25 $68 4.25 $65 $102 forward @7 unknown T -42.499999999999957 285 -199.98868770766683 42.50000000000005 285 -199.98868770766683 #
name_attrib-gen-attrib $-1 -1 $103 $-1 $41 2 1 1 1 1 1 1 1 1 1 1 1 1 1 0 1 1 1 @3 eif #
vertex $104 -1 -1 $-1 $41 $105 #
vertex $106 -1 -1 $-1 $82 $107 #
straight-curve $-1 -1 -1 $-1 42.500000000000043 277.5 -199.98868770766683 0 -10 -0 I I #
coedge $-1 -1 -1 $-1 $59 $61 $42 $72 reversed $35 $-1 #
edge $108 -1 -1 $-1 $76 -0.75 $80 0.75 $71 $109 forward @7 unknown T -42.500000000000043 270 200.01131229233317 -42.500000000000043 285 200.01131229233317 #
coedge $-1 -1 -1 $-1 $65 $43 $48 $83 forward $57 $-1 #
coedge $-1 -1 -1 $-1 $43 $65 $59 $93 reversed $57 $-1 #
name_attrib-gen-attrib $-1 -1 $110 $-1 $44 2 1 1 1 1 1 1 1 1 1 1 1 1 1 0 1 1 1 @3 eif #
vertex $111 -1 -1 $-1 $44 $112 #
straight-curve $-1 -1 -1 $-1 -4.8987257322153801e-14 285 200.01131229233317 -10 0 -2.4492935982947061e-15 I I #
coedge $-1 -1 -1 $-1 $45 $60 $47 $82 reversed $24 $-1 #
name_attrib-gen-attrib $-1 -1 $113 $-1 $46 2 1 1 1 1 1 1 1 1 1 1 1 1 1 0 1 1 1 @3 eif #
vertex $114 -1 -1 $-1 $72 $115 #
straight-curve $-1 -1 -1 $-1 -4.8987257322153801e-14 270 200.01131229233317 10 0 2.4492935982947061e-15 I I #
edge $116 -1 -1 $-1 $51 -20 $69 20 $47 $117 forward @7 unknown T 42.49999999999995 270 -199.98868770766683 42.50000000000005 270 200.01131229233317 #
edge $118 -1 -1 $-1 $52 -20 $68 20 $48 $119 forward @7 unknown T 42.49999999999995 285 -199.98868770766683 42.50000000000005 285 200.01131229233317 #
integer_attrib-name_attrib-gen-attrib $-1 -1 $-1 $50 $30 2 1 1 1 1 1 1 1 1 1 1 1 1 1 0 1 1 1 @3 pid 1 #
integer_attrib-name_attrib-gen-attrib $-1 -1 $-1 $-1 $51 2 1 1 1 1 1 1 1 1 1 1 1 1 1 0 1 1 1 @3 pid 1 #
point $-1 -1 -1 $-1 42.499999999999957 270 200.01131229233317 #
integer_attrib-name_attrib-gen-attrib $-1 -1 $-1 $-1 $52 2 1 1 1 1 1 1 1 1 1 1 1 1 1 0 1 1 1 @3 pid 2 #
point $-1 -1 -1 $-1 42.499999999999957 285 200.01131229233317 #
integer_attrib-name_attrib-gen-attrib $-1 -1 $-1 $55 $34 2 1 1 1 1 1 1 1 1 1 1 1 1 1 0 1 1 1 @3 pid 5 #
integer_attrib-name_attrib-gen-attrib $-1 -1 $120 $-1 $56 2 0 0 1 1 1 1 1 1 1 1 1 1 1 0 1 1 1 @3 fif 0 #
plane-surface $-1 -1 -1 $-1 42.5 277.5 0.011312292333178915 -1 0 -2.4492935982947059e-16 -2.4492935982947061e-15 0 10 forward_v I I I I #
coedge $-1 -1 -1 $-1 $61 $59 $63 $97 reversed $35 $-1 #
edge $121 -1 -1 $-1 $76 -20 $101 20 $74 $122 forward @7 unknown T -42.50000000000005 285 -199.98868770766686 -42.49999999999995 285 200.01131229233317 #
name_attrib-gen-attrib $-1 -1 $123 $-1 $62 2 1 1 1 1 1 1 1 1 1 1 1 1 1 0 1 1 1 @3 eif #
vertex $124 -1 -1 $-1 $97 $125 #
straight-curve $-1 -1 -1 $-1 -42.5 270 0.011312292333158098 2.4492935982947061e-15 0 -10 I I #
edge $126 -1 -1 $-1 $95 -0.75 $101 0.75 $92 $127 forward @7 unknown T -42.499999999999957 270 -199.98868770766683 -42.499999999999957 285 -199.98868770766683 #
name_attrib-gen-attrib $-1 -1 $128 $-1 $64 2 1 1 1 1 1 1 1 1 1 1 1 1 1 0 1 1 1 @3 eif #
straight-curve $-1 -1 -1 $-1 4.8984486609634431e-14 270 -199.98868770766683 -10 0 -2.4492935982947061e-15 I I #
name_attrib-gen-attrib $-1 -1 $129 $-1 $66 2 1 1 1 1 1 1 1 1 1 1 1 1 1 0 1 1 1 @3 eif #
vertex $130 -1 -1 $-1 $66 $131 #
straight-curve $-1 -1 -1 $-1 4.8984486609634431e-14 285 -199.98868770766683 10 0 2.4492935982947061e-15 I I #
integer_attrib-name_attrib-gen-attrib $-1 -1 $-1 $67 $41 2 1 1 1 1 1 1 1 1 1 1 1 1 1 0 1 1 1 @3 pid 5 #
integer_attrib-name_attrib-gen-attrib $-1 -1 $-1 $-1 $68 2 1 1 1 1 1 1 1 1 1 1 1 1 1 0 1 1 1 @3 pid 5 #
point $-1 -1 -1 $-1 42.500000000000043 285 -199.98868770766683 #
integer_attrib-name_attrib-gen-attrib $-1 -1 $-1 $-1 $69 2 1 1 1 1 1 1 1 1 1 1 1 1 1 0 1 1 1 @3 pid 6 #
point $-1 -1 -1 $-1 42.500000000000043 270 -199.98868770766683 #
name_attrib-gen-attrib $-1 -1 $132 $-1 $72 2 1 1 1 1 1 1 1 1 1 1 1 1 1 0 1 1 1 @3 eif #
straight-curve $-1 -1 -1 $-1 -42.500000000000043 277.5 200.01131229233317 0 -10 -0 I I #
integer_attrib-name_attrib-gen-attrib $-1 -1 $-1 $75 $44 2 1 1 1 1 1 1 1 1 1 1 1 1 1 0 1 1 1 @3 pid 2 #
integer_attrib-name_attrib-gen-attrib $-1 -1 $-1 $-1 $76 2 1 1 1 1 1 1 1 1 1 1 1 1 1 0 1 1 1 @3 pid 3 #
point $-1 -1 -1 $-1 -42.500000000000043 285 200.01131229233317 #
integer_attrib-name_attrib-gen-attrib $-1 -1 $-1 $79 $46 2 1 1 1 1 1 1 1 1 1 1 1 1 1 0 1 1 1 @3 pid 4 #
integer_attrib-name_attrib-gen-attrib $-1 -1 $-1 $-1 $80 2 1 1 1 1 1 1 1 1 1 1 1 1 1 0 1 1 1 @3 pid 4 #
point $-1 -1 -1 $-1 -42.500000000000043 270 200.01131229233317 #
name_attrib-gen-attrib $-1 -1 $133 $-1 $82 2 1 1 1 1 1 1 1 1 1 1 1 1 1 0 1 1 1 @3 eif #
straight-curve $-1 -1 -1 $-1 42.5 270 0.011312292333178915 2.4492935982947061e-15 0 -10 I I #
name_attrib-gen-attrib $-1 -1 $134 $-1 $83 2 1 1 1 1 1 1 1 1 1 1 1 1 1 0 1 1 1 @3 eif #
straight-curve $-1 -1 -1 $-1 42.5 285 0.011312292333178915 2.4492935982947061e-15 0 -10 I I #
integer_attrib-name_attrib-gen-attrib $-1 -1 $-1 $90 $56 2 1 1 1 1 1 1 1 1 1 1 1 1 1 0 1 1 1 @3 pid 6 #
name_attrib-gen-attrib $-1 -1 $135 $-1 $93 2 1 1 1 1 1 1 1 1 1 1 1 1 1 0 1 1 1 @3 eif #
straight-curve $-1 -1 -1 $-1 -42.5 285 0.011312292333158098 2.4492935982947061e-15 0 -10 I I #
integer_attrib-name_attrib-gen-attrib $-1 -1 $-1 $94 $62 2 1 1 1 1 1 1 1 1 1 1 1 1 1 0 1 1 1 @3 pid 9 #
integer_attrib-name_attrib-gen-attrib $-1 -1 $-1 $-1 $95 2 1 1 1 1 1 1 1 1 1 1 1 1 1 0 1 1 1 @3 pid 7 #
point $-1 -1 -1 $-1 -42.499999999999957 270 -199.98868770766683 #
name_attrib-gen-attrib $-1 -1 $136 $-1 $97 2 1 1 1 1 1 1 1 1 1 1 1 1 1 0 1 1 1 @3 eif #
straight-curve $-1 -1 -1 $-1 -42.499999999999957 277.5 -199.98868770766683 0 10 0 I I #
integer_attrib-name_attrib-gen-attrib $-1 -1 $-1 $98 $64 2 1 1 1 1 1 1 1 1 1 1 1 1 1 0 1 1 1 @3 pid 6 #
integer_attrib-name_attrib-gen-attrib $-1 -1 $-1 $100 $66 2 1 1 1 1 1 1 1 1 1 1 1 1 1 0 1 1 1 @3 pid 8 #
integer_attrib-name_attrib-gen-attrib $-1 -1 $-1 $-1 $101 2 1 1 1 1 1 1 1 1 1 1 1 1 1 0 1 1 1 @3 pid 8 #
point $-1 -1 -1 $-1 -42.499999999999957 285 -199.98868770766683 #
integer_attrib-name_attrib-gen-attrib $-1 -1 $-1 $108 $72 2 1 1 1 1 1 1 1 1 1 1 1 1 1 0 1 1 1 @3 pid 3 #
integer_attrib-name_attrib-gen-attrib $-1 -1 $-1 $116 $82 2 1 1 1 1 1 1 1 1 1 1 1 1 1 0 1 1 1 @3 pid 10 #
integer_attrib-name_attrib-gen-attrib $-1 -1 $-1 $118 $83 2 1 1 1 1 1 1 1 1 1 1 1 1 1 0 1 1 1 @3 pid 12 #
integer_attrib-name_attrib-gen-attrib $-1 -1 $-1 $121 $93 2 1 1 1 1 1 1 1 1 1 1 1 1 1 0 1 1 1 @3 pid 11 #
integer_attrib-name_attrib-gen-attrib $-1 -1 $-1 $126 $97 2 1 1 1 1 1 1 1 1 1 1 1 1 1 0 1 1 1 @3 pid 7 #
End-of-ACIS-data 