3100 0 3 0           
20 CST MICROWAVE STUDIO 14 ACIS 31.0.1 NT 24 Mon Mar 27 16:28:16 2023 
1 9.9999999999999995e-07 1e-10 
T @77 FD6HNNRRD46_4WWU92MJ4T3W57843F56WBGMP674K8RUSANDYCQCG6N8BBP3Q8NDQ8SKKA6W2BGMN 
name_attrib-gen-attrib $-1 -1 $-1 $-1 $-1 2 1 1 1 1 1 1 1 1 1 1 1 1 1 1 1 1 1 @17 VirtualBackground #
body $3 -1 -1 $-1 0 $4 $-1 $-1 T -42.50000000000005 285 -199.98868770766686 42.50000000000005 285.50299999999999 200.01131229233317 #
body $5 -1 -1 $-1 0 $6 $-1 $-1 T -50.00000000000005 287.10300000000001 -199.98868770766686 50.00000000000005 287.60599999999999 200.01131229233317 #
rgb_color-st-attrib $-1 -1 $7 $-1 $1 2 1 2 1 1 1 1 1 1 1 1 1 1 1 0 1 1 1 0.93999999761581421 0.81999999284744263 0.75999999046325684 #
lump $-1 -1 -1 $-1 $-1 $8 $1 T -42.50000000000005 285 -199.98868770766686 42.50000000000005 285.50299999999999 200.01131229233317 #
rgb_color-st-attrib $-1 -1 $9 $-1 $2 2 1 2 1 1 1 1 1 1 1 1 1 1 1 0 1 1 1 0.93999999761581421 0.81999999284744263 0.75999999046325684 #
lump $-1 -1 -1 $-1 $-1 $10 $2 T -50.00000000000005 287.10300000000001 -199.98868770766686 50.00000000000005 287.60599999999999 200.01131229233317 #
name_attrib-gen-attrib $-1 -1 $11 $3 $1 2 1 1 1 1 1 1 1 1 1 1 1 1 1 0 1 1 1 @27 c0.940000 0.820000 0.760000 #
shell $-1 -1 -1 $-1 $-1 $-1 $12 $-1 $4 T -42.50000000000005 285 -199.98868770766686 42.50000000000005 285.50299999999999 200.01131229233317 #
name_attrib-gen-attrib $-1 -1 $13 $5 $2 2 1 1 1 1 1 1 1 1 1 1 1 1 1 0 1 1 1 @27 c0.940000 0.820000 0.760000 #
shell $-1 -1 -1 $-1 $-1 $-1 $14 $-1 $6 T -50.00000000000005 287.10300000000001 -199.98868770766686 50.00000000000005 287.60599999999999 200.01131229233317 #
integer_attrib-name_attrib-gen-attrib $-1 -1 $15 $7 $1 2 1 1 1 1 1 1 1 1 1 1 1 1 1 0 1 1 1 @4 type 5 #
face $16 -1 -1 $-1 $17 $18 $8 $-1 $19 forward single T -42.50000000000005 285 200.01131229233317 42.499999999999957 285.50299999999999 200.01131229233317 F #
integer_attrib-name_attrib-gen-attrib $-1 -1 $20 $9 $2 2 1 1 1 1 1 1 1 1 1 1 1 1 1 0 1 1 1 @4 type 5 #
face $21 -1 -1 $-1 $22 $23 $10 $-1 $24 forward single T -50.00000000000005 287.10300000000001 200.01131229233317 49.999999999999957 287.60599999999999 200.01131229233317 F #
name_attrib-gen-attrib $-1 -1 $25 $11 $1 2 1 1 1 1 1 1 1 1 1 1 1 1 1 0 1 1 1 @13 mFR-4 (lossy) #
integer_attrib-name_attrib-gen-attrib $-1 -1 $26 $-1 $12 2 0 0 1 1 1 1 1 1 1 1 1 1 1 0 1 1 1 @3 fif 0 #
face $27 -1 -1 $-1 $28 $29 $8 $-1 $30 forward single T -42.50000000000005 285 -199.98868770766686 -42.49999999999995 285.50299999999999 200.01131229233317 F #
loop $-1 -1 -1 $-1 $-1 $31 $12 T -42.50000000000005 285 200.01131229233317 42.499999999999957 285.50299999999999 200.01131229233317 unknown #
plane-surface $-1 -1 -1 $-1 -4.8987257322153801e-14 285 200.01131229233317 -2.4492935982947059e-16 0 1 10 0 2.4492935982947061e-15 forward_v I I I I #
name_attrib-gen-attrib $-1 -1 $32 $13 $2 2 1 1 1 1 1 1 1 1 1 1 1 1 1 0 1 1 1 @13 mFR-4 (lossy) #
integer_attrib-name_attrib-gen-attrib $-1 -1 $33 $-1 $14 2 0 0 1 1 1 1 1 1 1 1 1 1 1 0 1 1 1 @3 fif 0 #
face $34 -1 -1 $-1 $35 $36 $10 $-1 $37 forward single T -50.00000000000005 287.10300000000001 -199.98868770766686 -49.99999999999995 287.60599999999999 200.01131229233317 F #
loop $-1 -1 -1 $-1 $-1 $38 $14 T -50.00000000000005 287.10300000000001 200.01131229233317 49.999999999999957 287.60599999999999 200.01131229233317 unknown #
plane-surface $-1 -1 -1 $-1 -4.8987257322153801e-14 287.10300000000001 200.01131229233317 -2.4492935982947059e-16 0 1 10 0 2.4492935982947061e-15 forward_v I I I I #
name_attrib-gen-attrib $-1 -1 $39 $15 $1 2 1 1 1 1 1 1 1 1 1 1 1 1 1 0 1 1 1 @20 nLWA/Model:substrate #
integer_attrib-name_attrib-gen-attrib $-1 -1 $-1 $16 $12 2 1 1 1 1 1 1 1 1 1 1 1 1 1 0 1 1 1 @3 pid 1 #
integer_attrib-name_attrib-gen-attrib $-1 -1 $40 $-1 $17 2 0 0 1 1 1 1 1 1 1 1 1 1 1 0 1 1 1 @3 fif 0 #
face $41 -1 -1 $-1 $42 $43 $8 $-1 $44 forward single T -42.499999999999957 285 -199.98868770766683 42.50000000000005 285.50299999999999 -199.98868770766683 F #
loop $-1 -1 -1 $-1 $-1 $45 $17 T -42.50000000000005 285 -199.98868770766686 -42.49999999999995 285.50299999999999 200.01131229233317 unknown #
plane-surface $-1 -1 -1 $-1 -42.5 285 0.011312292333158098 -1 0 -2.4492935982947059e-16 -2.4492935982947061e-15 0 10 forward_v I I I I #
coedge $-1 -1 -1 $-1 $46 $47 $48 $49 forward $18 $-1 #
name_attrib-gen-attrib $-1 -1 $50 $20 $2 2 1 1 1 1 1 1 1 1 1 1 1 1 1 0 1 1 1 @22 nLWA/Model:substrate_1 #
integer_attrib-name_attrib-gen-attrib $-1 -1 $-1 $21 $14 2 1 1 1 1 1 1 1 1 1 1 1 1 1 0 1 1 1 @3 pid 1 #
integer_attrib-name_attrib-gen-attrib $-1 -1 $51 $-1 $22 2 0 0 1 1 1 1 1 1 1 1 1 1 1 0 1 1 1 @3 fif 0 #
face $52 -1 -1 $-1 $53 $54 $10 $-1 $55 forward single T -49.999999999999957 287.10300000000001 -199.98868770766683 50.00000000000005 287.60599999999999 -199.98868770766683 F #
loop $-1 -1 -1 $-1 $-1 $56 $22 T -50.00000000000005 287.10300000000001 -199.98868770766686 -49.99999999999995 287.60599999999999 200.01131229233317 unknown #
plane-surface $-1 -1 -1 $-1 -50 287.10300000000001 0.011312292333156259 -1 0 -2.4492935982947059e-16 -2.4492935982947061e-15 0 10 forward_v I I I I #
coedge $-1 -1 -1 $-1 $57 $58 $59 $60 forward $23 $-1 #
integer_attrib-name_attrib-gen-attrib $-1 -1 $61 $25 $1 2 1 1 1 1 1 1 1 1 1 1 1 1 1 0 1 1 1 @3 noe 12 #
integer_attrib-name_attrib-gen-attrib $-1 -1 $-1 $27 $17 2 1 1 1 1 1 1 1 1 1 1 1 1 1 0 1 1 1 @3 pid 2 #
integer_attrib-name_attrib-gen-attrib $-1 -1 $62 $-1 $28 2 0 0 1 1 1 1 1 1 1 1 1 1 1 0 1 1 1 @3 fif 0 #
face $63 -1 -1 $-1 $64 $65 $8 $-1 $66 forward single T 42.49999999999995 285 -199.98868770766683 42.50000000000005 285.50299999999999 200.01131229233317 F #
loop $-1 -1 -1 $-1 $-1 $67 $28 T -42.499999999999957 285 -199.98868770766683 42.50000000000005 285.50299999999999 -199.98868770766683 unknown #
plane-surface $-1 -1 -1 $-1 4.8984486609634431e-14 285 -199.98868770766683 2.4492935982947059e-16 0 -1 -10 0 -2.4492935982947061e-15 forward_v I I I I #
coedge $-1 -1 -1 $-1 $68 $69 $70 $71 forward $29 $-1 #
coedge $-1 -1 -1 $-1 $72 $31 $69 $73 reversed $18 $-1 #
coedge $-1 -1 -1 $-1 $31 $72 $74 $75 forward $18 $-1 #
coedge $-1 -1 -1 $-1 $76 $70 $31 $49 reversed $77 $-1 #
edge $78 -1 -1 $-1 $79 -4.25 $80 4.25 $31 $81 forward @7 unknown T -42.50000000000005 285.50299999999999 200.01131229233317 42.499999999999957 285.50299999999999 200.01131229233317 #
integer_attrib-name_attrib-gen-attrib $-1 -1 $82 $32 $2 2 1 1 1 1 1 1 1 1 1 1 1 1 1 0 1 1 1 @3 noe 12 #
integer_attrib-name_attrib-gen-attrib $-1 -1 $-1 $34 $22 2 1 1 1 1 1 1 1 1 1 1 1 1 1 0 1 1 1 @3 pid 2 #
integer_attrib-name_attrib-gen-attrib $-1 -1 $83 $-1 $35 2 0 0 1 1 1 1 1 1 1 1 1 1 1 0 1 1 1 @3 fif 0 #
face $84 -1 -1 $-1 $85 $86 $10 $-1 $87 forward single F F #
loop $-1 -1 -1 $-1 $-1 $88 $35 T -49.999999999999957 287.10300000000001 -199.98868770766683 50.00000000000005 287.60599999999999 -199.98868770766683 unknown #
plane-surface $-1 -1 -1 $-1 4.8984486609634431e-14 287.10300000000001 -199.98868770766683 2.4492935982947059e-16 0 -1 -10 0 -2.4492935982947061e-15 forward_v I I I I #
coedge $-1 -1 -1 $-1 $89 $90 $91 $92 forward $36 $-1 #
coedge $-1 -1 -1 $-1 $93 $38 $90 $94 reversed $23 $-1 #
coedge $-1 -1 -1 $-1 $38 $93 $95 $96 forward $23 $-1 #
coedge $-1 -1 -1 $-1 $97 $91 $38 $60 reversed $98 $-1 #
edge $99 -1 -1 $-1 $100 -5 $101 5 $38 $102 forward @7 unknown T -50.00000000000005 287.60599999999999 200.01131229233317 49.999999999999957 287.60599999999999 200.01131229233317 #
integer_attrib-name_attrib-gen-attrib $-1 -1 $-1 $39 $1 2 1 1 1 1 1 1 1 1 1 1 1 1 1 0 1 1 1 @3 nof 6 #
integer_attrib-name_attrib-gen-attrib $-1 -1 $-1 $41 $28 2 1 1 1 1 1 1 1 1 1 1 1 1 1 0 1 1 1 @3 pid 3 #
integer_attrib-name_attrib-gen-attrib $-1 -1 $103 $-1 $42 2 0 0 1 1 1 1 1 1 1 1 1 1 1 0 1 1 1 @3 fif 0 #
face $104 -1 -1 $-1 $105 $77 $8 $-1 $106 reversed single T -42.50000000000005 285.50299999999999 -199.98868770766686 42.50000000000005 285.50299999999999 200.01131229233317 F #
loop $-1 -1 -1 $-1 $-1 $107 $42 T 42.49999999999995 285 -199.98868770766683 42.50000000000005 285.50299999999999 200.01131229233317 unknown #
plane-surface $-1 -1 -1 $-1 42.5 285 0.011312292333178915 1 0 2.4492935982947059e-16 2.4492935982947061e-15 0 -10 forward_v I I I I #
coedge $-1 -1 -1 $-1 $108 $109 $110 $111 forward $43 $-1 #
coedge $-1 -1 -1 $-1 $112 $45 $109 $113 reversed $29 $-1 #
coedge $-1 -1 -1 $-1 $45 $112 $46 $73 forward $29 $-1 #
coedge $-1 -1 -1 $-1 $48 $110 $45 $71 reversed $77 $-1 #
edge $114 -1 -1 $-1 $80 -20 $115 20 $45 $116 forward @7 unknown T -42.50000000000005 285.50299999999999 -199.98868770766686 -42.49999999999995 285.50299999999999 200.01131229233317 #
coedge $-1 -1 -1 $-1 $47 $46 $117 $118 reversed $18 $-1 #
edge $119 -1 -1 $-1 $120 0 $80 0.050300000000000011 $69 $121 forward @7 unknown T -42.500000000000043 285 200.01131229233317 -42.500000000000043 285.50299999999999 200.01131229233317 #
coedge $-1 -1 -1 $-1 $122 $107 $47 $75 reversed $65 $-1 #
edge $123 -1 -1 $-1 $124 0 $79 0.050300000000000011 $47 $125 forward @7 unknown T 42.499999999999957 285 200.01131229233317 42.499999999999957 285.50299999999999 200.01131229233317 #
coedge $-1 -1 -1 $-1 $110 $48 $107 $126 reversed $77 $-1 #
loop $-1 -1 -1 $-1 $-1 $48 $64 T -42.50000000000005 285.50299999999999 -199.98868770766686 42.50000000000005 285.50299999999999 200.01131229233317 unknown #
name_attrib-gen-attrib $-1 -1 $127 $-1 $49 2 1 1 1 1 1 1 1 1 1 1 1 1 1 0 1 1 1 @3 eif #
vertex $128 -1 -1 $-1 $75 $129 #
vertex $130 -1 -1 $-1 $73 $131 #
straight-curve $-1 -1 -1 $-1 -4.8987257322153801e-14 285.50299999999999 200.01131229233317 -10 0 -2.4492935982947061e-15 I I #
integer_attrib-name_attrib-gen-attrib $-1 -1 $-1 $50 $2 2 1 1 1 1 1 1 1 1 1 1 1 1 1 0 1 1 1 @3 nof 6 #
integer_attrib-name_attrib-gen-attrib $-1 -1 $-1 $52 $35 2 1 1 1 1 1 1 1 1 1 1 1 1 1 0 1 1 1 @3 pid 3 #
integer_attrib-name_attrib-gen-attrib $-1 -1 $132 $-1 $53 2 0 0 1 1 1 1 1 1 1 1 1 1 1 0 1 1 1 @3 fif 0 #
face $133 -1 -1 $-1 $134 $98 $10 $-1 $135 reversed single T -50.00000000000005 287.60599999999999 -199.98868770766686 50.00000000000005 287.60599999999999 200.01131229233317 F #
loop $-1 -1 -1 $-1 $-1 $136 $53 T 49.99999999999995 287.10300000000001 -199.98868770766683 50.00000000000005 287.60599999999999 200.01131229233317 unknown #
plane-surface $-1 -1 -1 $-1 50 287.10300000000001 0.011312292333180754 1 0 2.4492935982947059e-16 2.4492935982947061e-15 0 -10 forward_v I I I I #
coedge $-1 -1 -1 $-1 $137 $138 $139 $140 forward $54 $-1 #
coedge $-1 -1 -1 $-1 $141 $56 $138 $142 reversed $36 $-1 #
coedge $-1 -1 -1 $-1 $56 $141 $57 $94 forward $36 $-1 #
coedge $-1 -1 -1 $-1 $59 $139 $56 $92 reversed $98 $-1 #
edge $143 -1 -1 $-1 $101 -20 $144 20 $56 $145 forward @7 unknown T -50.00000000000005 287.60599999999999 -199.98868770766686 -49.99999999999995 287.60599999999999 200.01131229233317 #
coedge $-1 -1 -1 $-1 $58 $57 $146 $147 reversed $23 $-1 #
edge $148 -1 -1 $-1 $149 0 $101 0.050300000000000011 $90 $150 forward @7 unknown T -50.000000000000043 287.10300000000001 200.01131229233317 -50.000000000000043 287.60599999999999 200.01131229233317 #
coedge $-1 -1 -1 $-1 $151 $136 $58 $96 reversed $86 $-1 #
edge $152 -1 -1 $-1 $153 0 $100 0.050300000000000011 $58 $154 forward @7 unknown T 49.999999999999957 287.10300000000001 200.01131229233317 49.999999999999957 287.60599999999999 200.01131229233317 #
coedge $-1 -1 -1 $-1 $139 $59 $136 $155 reversed $98 $-1 #
loop $-1 -1 -1 $-1 $-1 $59 $85 T -50.00000000000005 287.60599999999999 -199.98868770766686 50.00000000000005 287.60599999999999 200.01131229233317 unknown #
name_attrib-gen-attrib $-1 -1 $156 $-1 $60 2 1 1 1 1 1 1 1 1 1 1 1 1 1 0 1 1 1 @3 eif #
vertex $157 -1 -1 $-1 $96 $158 #
vertex $159 -1 -1 $-1 $94 $160 #
straight-curve $-1 -1 -1 $-1 -4.8987257322153801e-14 287.60599999999999 200.01131229233317 -10 0 -2.4492935982947061e-15 I I #
integer_attrib-name_attrib-gen-attrib $-1 -1 $-1 $63 $42 2 1 1 1 1 1 1 1 1 1 1 1 1 1 0 1 1 1 @3 pid 4 #
integer_attrib-name_attrib-gen-attrib $-1 -1 $161 $-1 $64 2 0 0 1 1 1 1 1 1 1 1 1 1 1 0 1 1 1 @3 fif 0 #
face $162 -1 -1 $-1 $-1 $163 $8 $-1 $164 forward single T -42.50000000000005 285 -199.98868770766686 42.50000000000005 285 200.01131229233317 F #
plane-surface $-1 -1 -1 $-1 -1.3853562596833952e-18 285.50299999999999 0.011312292333168507 0 -1 -0 2.4492935982947061e-15 0 -10 forward_v I I I I #
coedge $-1 -1 -1 $-1 $74 $165 $76 $126 forward $65 $-1 #
coedge $-1 -1 -1 $-1 $166 $67 $165 $167 reversed $43 $-1 #
coedge $-1 -1 -1 $-1 $67 $166 $68 $113 forward $43 $-1 #
coedge $-1 -1 -1 $-1 $70 $76 $67 $111 reversed $77 $-1 #
edge $168 -1 -1 $-1 $115 -4.25 $169 4.25 $67 $170 forward @7 unknown T -42.499999999999957 285.50299999999999 -199.98868770766683 42.50000000000005 285.50299999999999 -199.98868770766683 #
coedge $-1 -1 -1 $-1 $69 $68 $171 $172 reversed $29 $-1 #
edge $173 -1 -1 $-1 $174 0 $115 0.050300000000000011 $109 $175 forward @7 unknown T -42.499999999999957 285 -199.98868770766683 -42.499999999999957 285.50299999999999 -199.98868770766683 #
name_attrib-gen-attrib $-1 -1 $176 $-1 $71 2 1 1 1 1 1 1 1 1 1 1 1 1 1 0 1 1 1 @3 eif #
vertex $177 -1 -1 $-1 $113 $178 #
straight-curve $-1 -1 -1 $-1 -42.5 285.50299999999999 0.011312292333158098 2.4492935982947061e-15 0 -10 I I #
coedge $-1 -1 -1 $-1 $171 $179 $72 $118 forward $163 $-1 #
edge $180 -1 -1 $-1 $124 -4.25 $120 4.25 $72 $181 forward @7 unknown T -42.50000000000005 285 200.01131229233317 42.499999999999957 285 200.01131229233317 #
name_attrib-gen-attrib $-1 -1 $182 $-1 $73 2 1 1 1 1 1 1 1 1 1 1 1 1 1 0 1 1 1 @3 eif #
vertex $183 -1 -1 $-1 $118 $184 #
straight-curve $-1 -1 -1 $-1 -42.500000000000043 285 200.01131229233317 0 10 0 I I #
coedge $-1 -1 -1 $-1 $165 $74 $179 $185 forward $65 $-1 #
name_attrib-gen-attrib $-1 -1 $186 $-1 $75 2 1 1 1 1 1 1 1 1 1 1 1 1 1 0 1 1 1 @3 eif #
vertex $187 -1 -1 $-1 $185 $188 #
straight-curve $-1 -1 -1 $-1 42.499999999999957 285 200.01131229233317 0 10 0 I I #
edge $189 -1 -1 $-1 $169 -20 $79 20 $107 $190 forward @7 unknown T 42.49999999999995 285.50299999999999 -199.98868770766683 42.50000000000005 285.50299999999999 200.01131229233317 #
integer_attrib-name_attrib-gen-attrib $-1 -1 $-1 $78 $49 2 1 1 1 1 1 1 1 1 1 1 1 1 1 0 1 1 1 @3 pid 1 #
integer_attrib-name_attrib-gen-attrib $-1 -1 $-1 $-1 $79 2 1 1 1 1 1 1 1 1 1 1 1 1 1 0 1 1 1 @3 pid 1 #
point $-1 -1 -1 $-1 42.499999999999957 285.50299999999999 200.01131229233317 #
integer_attrib-name_attrib-gen-attrib $-1 -1 $-1 $-1 $80 2 1 1 1 1 1 1 1 1 1 1 1 1 1 0 1 1 1 @3 pid 2 #
point $-1 -1 -1 $-1 -42.500000000000043 285.50299999999999 200.01131229233317 #
integer_attrib-name_attrib-gen-attrib $-1 -1 $-1 $84 $53 2 1 1 1 1 1 1 1 1 1 1 1 1 1 0 1 1 1 @3 pid 4 #
integer_attrib-name_attrib-gen-attrib $-1 -1 $191 $-1 $85 2 0 0 1 1 1 1 1 1 1 1 1 1 1 0 1 1 1 @3 fif 0 #
face $192 -1 -1 $-1 $-1 $193 $10 $-1 $194 forward single T -50.00000000000005 287.10300000000001 -199.98868770766686 50.00000000000005 287.10300000000001 200.01131229233317 F #
plane-surface $-1 -1 -1 $-1 -1.3853562596833952e-18 287.60599999999999 0.011312292333168507 0 -1 -0 2.4492935982947061e-15 0 -10 forward_v I I I I #
coedge $-1 -1 -1 $-1 $95 $195 $97 $155 forward $86 $-1 #
coedge $-1 -1 -1 $-1 $196 $88 $195 $197 reversed $54 $-1 #
coedge $-1 -1 -1 $-1 $88 $196 $89 $142 forward $54 $-1 #
coedge $-1 -1 -1 $-1 $91 $97 $88 $140 reversed $98 $-1 #
edge $198 -1 -1 $-1 $144 -5 $199 5 $88 $200 forward @7 unknown T -49.999999999999957 287.60599999999999 -199.98868770766683 50.00000000000005 287.60599999999999 -199.98868770766683 #
coedge $-1 -1 -1 $-1 $90 $89 $201 $202 reversed $36 $-1 #
edge $203 -1 -1 $-1 $204 0 $144 0.050300000000000011 $138 $205 forward @7 unknown T -49.999999999999957 287.10300000000001 -199.98868770766683 -49.999999999999957 287.60599999999999 -199.98868770766683 #
name_attrib-gen-attrib $-1 -1 $206 $-1 $92 2 1 1 1 1 1 1 1 1 1 1 1 1 1 0 1 1 1 @3 eif #
vertex $207 -1 -1 $-1 $142 $208 #
straight-curve $-1 -1 -1 $-1 -50 287.60599999999999 0.011312292333156259 2.4492935982947061e-15 0 -10 I I #
coedge $-1 -1 -1 $-1 $201 $209 $93 $147 forward $193 $-1 #
edge $210 -1 -1 $-1 $153 -5 $149 5 $93 $211 forward @7 unknown T -50.00000000000005 287.10300000000001 200.01131229233317 49.999999999999957 287.10300000000001 200.01131229233317 #
name_attrib-gen-attrib $-1 -1 $212 $-1 $94 2 1 1 1 1 1 1 1 1 1 1 1 1 1 0 1 1 1 @3 eif #
vertex $213 -1 -1 $-1 $147 $214 #
straight-curve $-1 -1 -1 $-1 -50.000000000000043 287.10300000000001 200.01131229233317 0 10 0 I I #
coedge $-1 -1 -1 $-1 $195 $95 $209 $215 forward $86 $-1 #
name_attrib-gen-attrib $-1 -1 $216 $-1 $96 2 1 1 1 1 1 1 1 1 1 1 1 1 1 0 1 1 1 @3 eif #
vertex $217 -1 -1 $-1 $215 $218 #
straight-curve $-1 -1 -1 $-1 49.999999999999957 287.10300000000001 200.01131229233317 0 10 0 I I #
edge $219 -1 -1 $-1 $199 -20 $100 20 $136 $220 forward @7 unknown T 49.99999999999995 287.60599999999999 -199.98868770766683 50.00000000000005 287.60599999999999 200.01131229233317 #
integer_attrib-name_attrib-gen-attrib $-1 -1 $-1 $99 $60 2 1 1 1 1 1 1 1 1 1 1 1 1 1 0 1 1 1 @3 pid 1 #
integer_attrib-name_attrib-gen-attrib $-1 -1 $-1 $-1 $100 2 1 1 1 1 1 1 1 1 1 1 1 1 1 0 1 1 1 @3 pid 1 #
point $-1 -1 -1 $-1 49.999999999999957 287.60599999999999 200.01131229233317 #
integer_attrib-name_attrib-gen-attrib $-1 -1 $-1 $-1 $101 2 1 1 1 1 1 1 1 1 1 1 1 1 1 0 1 1 1 @3 pid 2 #
point $-1 -1 -1 $-1 -50.000000000000043 287.60599999999999 200.01131229233317 #
integer_attrib-name_attrib-gen-attrib $-1 -1 $-1 $104 $64 2 1 1 1 1 1 1 1 1 1 1 1 1 1 0 1 1 1 @3 pid 5 #
integer_attrib-name_attrib-gen-attrib $-1 -1 $221 $-1 $105 2 0 0 1 1 1 1 1 1 1 1 1 1 1 0 1 1 1 @3 fif 0 #
loop $-1 -1 -1 $-1 $-1 $179 $105 T -42.50000000000005 285 -199.98868770766686 42.50000000000005 285 200.01131229233317 unknown #
plane-surface $-1 -1 -1 $-1 -1.3853562596833952e-18 285 0.011312292333168507 0 -1 -0 2.4492935982947061e-15 0 -10 forward_v I I I I #
coedge $-1 -1 -1 $-1 $107 $122 $108 $167 forward $65 $-1 #
coedge $-1 -1 -1 $-1 $109 $108 $222 $223 reversed $43 $-1 #
edge $224 -1 -1 $-1 $225 0 $169 0.050300000000000011 $165 $226 forward @7 unknown T 42.500000000000043 285 -199.98868770766683 42.500000000000043 285.50299999999999 -199.98868770766683 #
name_attrib-gen-attrib $-1 -1 $227 $-1 $111 2 1 1 1 1 1 1 1 1 1 1 1 1 1 0 1 1 1 @3 eif #
vertex $228 -1 -1 $-1 $167 $229 #
straight-curve $-1 -1 -1 $-1 4.8984486609634431e-14 285.50299999999999 -199.98868770766683 10 0 2.4492935982947061e-15 I I #
coedge $-1 -1 -1 $-1 $222 $117 $112 $172 forward $163 $-1 #
edge $230 -1 -1 $-1 $120 -20 $174 20 $112 $231 forward @7 unknown T -42.50000000000005 285 -199.98868770766686 -42.49999999999995 285 200.01131229233317 #
name_attrib-gen-attrib $-1 -1 $232 $-1 $113 2 1 1 1 1 1 1 1 1 1 1 1 1 1 0 1 1 1 @3 eif #
vertex $233 -1 -1 $-1 $223 $234 #
straight-curve $-1 -1 -1 $-1 -42.499999999999957 285 -199.98868770766683 0 10 0 I I #
integer_attrib-name_attrib-gen-attrib $-1 -1 $-1 $114 $71 2 1 1 1 1 1 1 1 1 1 1 1 1 1 0 1 1 1 @3 pid 5 #
integer_attrib-name_attrib-gen-attrib $-1 -1 $-1 $-1 $115 2 1 1 1 1 1 1 1 1 1 1 1 1 1 0 1 1 1 @3 pid 5 #
point $-1 -1 -1 $-1 -42.499999999999957 285.50299999999999 -199.98868770766683 #
coedge $-1 -1 -1 $-1 $117 $222 $122 $185 reversed $163 $-1 #
name_attrib-gen-attrib $-1 -1 $235 $-1 $118 2 1 1 1 1 1 1 1 1 1 1 1 1 1 0 1 1 1 @3 eif #
straight-curve $-1 -1 -1 $-1 -4.8987257322153801e-14 285 200.01131229233317 -10 0 -2.4492935982947061e-15 I I #
integer_attrib-name_attrib-gen-attrib $-1 -1 $-1 $119 $73 2 1 1 1 1 1 1 1 1 1 1 1 1 1 0 1 1 1 @3 pid 2 #
integer_attrib-name_attrib-gen-attrib $-1 -1 $-1 $-1 $120 2 1 1 1 1 1 1 1 1 1 1 1 1 1 0 1 1 1 @3 pid 3 #
point $-1 -1 -1 $-1 -42.500000000000043 285 200.01131229233317 #
edge $236 -1 -1 $-1 $124 -20 $225 20 $122 $237 forward @7 unknown T 42.49999999999995 285 -199.98868770766683 42.50000000000005 285 200.01131229233317 #
integer_attrib-name_attrib-gen-attrib $-1 -1 $-1 $123 $75 2 1 1 1 1 1 1 1 1 1 1 1 1 1 0 1 1 1 @3 pid 4 #
integer_attrib-name_attrib-gen-attrib $-1 -1 $-1 $-1 $124 2 1 1 1 1 1 1 1 1 1 1 1 1 1 0 1 1 1 @3 pid 4 #
point $-1 -1 -1 $-1 42.499999999999957 285 200.01131229233317 #
name_attrib-gen-attrib $-1 -1 $238 $-1 $126 2 1 1 1 1 1 1 1 1 1 1 1 1 1 0 1 1 1 @3 eif #
straight-curve $-1 -1 -1 $-1 42.5 285.50299999999999 0.011312292333178915 -2.4492935982947061e-15 0 10 I I #
integer_attrib-name_attrib-gen-attrib $-1 -1 $-1 $133 $85 2 1 1 1 1 1 1 1 1 1 1 1 1 1 0 1 1 1 @3 pid 5 #
integer_attrib-name_attrib-gen-attrib $-1 -1 $239 $-1 $134 2 0 0 1 1 1 1 1 1 1 1 1 1 1 0 1 1 1 @3 fif 0 #
loop $-1 -1 -1 $-1 $-1 $209 $134 T -50.00000000000005 287.10300000000001 -199.98868770766686 50.00000000000005 287.10300000000001 200.01131229233317 unknown #
plane-surface $-1 -1 -1 $-1 -1.3853562596833952e-18 287.10300000000001 0.011312292333168507 0 -1 -0 2.4492935982947061e-15 0 -10 forward_v I I I I #
coedge $-1 -1 -1 $-1 $136 $151 $137 $197 forward $86 $-1 #
coedge $-1 -1 -1 $-1 $138 $137 $240 $241 reversed $54 $-1 #
edge $242 -1 -1 $-1 $243 0 $199 0.050300000000000011 $195 $244 forward @7 unknown T 50.000000000000043 287.10300000000001 -199.98868770766683 50.000000000000043 287.60599999999999 -199.98868770766683 #
name_attrib-gen-attrib $-1 -1 $245 $-1 $140 2 1 1 1 1 1 1 1 1 1 1 1 1 1 0 1 1 1 @3 eif #
vertex $246 -1 -1 $-1 $197 $247 #
straight-curve $-1 -1 -1 $-1 4.8984486609634431e-14 287.60599999999999 -199.98868770766683 10 0 2.4492935982947061e-15 I I #
coedge $-1 -1 -1 $-1 $240 $146 $141 $202 forward $193 $-1 #
edge $248 -1 -1 $-1 $149 -20 $204 20 $141 $249 forward @7 unknown T -50.00000000000005 287.10300000000001 -199.98868770766686 -49.99999999999995 287.10300000000001 200.01131229233317 #
name_attrib-gen-attrib $-1 -1 $250 $-1 $142 2 1 1 1 1 1 1 1 1 1 1 1 1 1 0 1 1 1 @3 eif #
vertex $251 -1 -1 $-1 $241 $252 #
straight-curve $-1 -1 -1 $-1 -49.999999999999957 287.10300000000001 -199.98868770766683 0 10 0 I I #
integer_attrib-name_attrib-gen-attrib $-1 -1 $-1 $143 $92 2 1 1 1 1 1 1 1 1 1 1 1 1 1 0 1 1 1 @3 pid 5 #
integer_attrib-name_attrib-gen-attrib $-1 -1 $-1 $-1 $144 2 1 1 1 1 1 1 1 1 1 1 1 1 1 0 1 1 1 @3 pid 5 #
point $-1 -1 -1 $-1 -49.999999999999957 287.60599999999999 -199.98868770766683 #
coedge $-1 -1 -1 $-1 $146 $240 $151 $215 reversed $193 $-1 #
name_attrib-gen-attrib $-1 -1 $253 $-1 $147 2 1 1 1 1 1 1 1 1 1 1 1 1 1 0 1 1 1 @3 eif #
straight-curve $-1 -1 -1 $-1 -4.8987257322153801e-14 287.10300000000001 200.01131229233317 -10 0 -2.4492935982947061e-15 I I #
integer_attrib-name_attrib-gen-attrib $-1 -1 $-1 $148 $94 2 1 1 1 1 1 1 1 1 1 1 1 1 1 0 1 1 1 @3 pid 2 #
integer_attrib-name_attrib-gen-attrib $-1 -1 $-1 $-1 $149 2 1 1 1 1 1 1 1 1 1 1 1 1 1 0 1 1 1 @3 pid 3 #
point $-1 -1 -1 $-1 -50.000000000000043 287.10300000000001 200.01131229233317 #
edge $254 -1 -1 $-1 $153 -20 $243 20 $151 $255 forward @7 unknown T 49.99999999999995 287.10300000000001 -199.98868770766683 50.00000000000005 287.10300000000001 200.01131229233317 #
integer_attrib-name_attrib-gen-attrib $-1 -1 $-1 $152 $96 2 1 1 1 1 1 1 1 1 1 1 1 1 1 0 1 1 1 @3 pid 4 #
integer_attrib-name_attrib-gen-attrib $-1 -1 $-1 $-1 $153 2 1 1 1 1 1 1 1 1 1 1 1 1 1 0 1 1 1 @3 pid 4 #
point $-1 -1 -1 $-1 49.999999999999957 287.10300000000001 200.01131229233317 #
name_attrib-gen-attrib $-1 -1 $256 $-1 $155 2 1 1 1 1 1 1 1 1 1 1 1 1 1 0 1 1 1 @3 eif #
straight-curve $-1 -1 -1 $-1 50 287.60599999999999 0.011312292333180754 -2.4492935982947061e-15 0 10 I I #
integer_attrib-name_attrib-gen-attrib $-1 -1 $-1 $162 $105 2 1 1 1 1 1 1 1 1 1 1 1 1 1 0 1 1 1 @3 pid 6 #
coedge $-1 -1 -1 $-1 $179 $171 $166 $223 forward $163 $-1 #
edge $257 -1 -1 $-1 $174 -4.25 $225 4.25 $166 $258 forward @7 unknown T -42.499999999999957 285 -199.98868770766683 42.50000000000005 285 -199.98868770766683 #
name_attrib-gen-attrib $-1 -1 $259 $-1 $167 2 1 1 1 1 1 1 1 1 1 1 1 1 1 0 1 1 1 @3 eif #
vertex $260 -1 -1 $-1 $185 $261 #
straight-curve $-1 -1 -1 $-1 42.500000000000043 285 -199.98868770766683 0 10 0 I I #
integer_attrib-name_attrib-gen-attrib $-1 -1 $-1 $168 $111 2 1 1 1 1 1 1 1 1 1 1 1 1 1 0 1 1 1 @3 pid 8 #
integer_attrib-name_attrib-gen-attrib $-1 -1 $-1 $-1 $169 2 1 1 1 1 1 1 1 1 1 1 1 1 1 0 1 1 1 @3 pid 7 #
point $-1 -1 -1 $-1 42.500000000000043 285.50299999999999 -199.98868770766683 #
name_attrib-gen-attrib $-1 -1 $262 $-1 $172 2 1 1 1 1 1 1 1 1 1 1 1 1 1 0 1 1 1 @3 eif #
straight-curve $-1 -1 -1 $-1 -42.5 285 0.011312292333158098 2.4492935982947061e-15 0 -10 I I #
integer_attrib-name_attrib-gen-attrib $-1 -1 $-1 $173 $113 2 1 1 1 1 1 1 1 1 1 1 1 1 1 0 1 1 1 @3 pid 6 #
integer_attrib-name_attrib-gen-attrib $-1 -1 $-1 $-1 $174 2 1 1 1 1 1 1 1 1 1 1 1 1 1 0 1 1 1 @3 pid 6 #
point $-1 -1 -1 $-1 -42.499999999999957 285 -199.98868770766683 #
integer_attrib-name_attrib-gen-attrib $-1 -1 $-1 $180 $118 2 1 1 1 1 1 1 1 1 1 1 1 1 1 0 1 1 1 @3 pid 3 #
name_attrib-gen-attrib $-1 -1 $263 $-1 $185 2 1 1 1 1 1 1 1 1 1 1 1 1 1 0 1 1 1 @3 eif #
straight-curve $-1 -1 -1 $-1 42.5 285 0.011312292333178915 2.4492935982947061e-15 0 -10 I I #
integer_attrib-name_attrib-gen-attrib $-1 -1 $-1 $189 $126 2 1 1 1 1 1 1 1 1 1 1 1 1 1 0 1 1 1 @3 pid 11 #
integer_attrib-name_attrib-gen-attrib $-1 -1 $-1 $192 $134 2 1 1 1 1 1 1 1 1 1 1 1 1 1 0 1 1 1 @3 pid 6 #
coedge $-1 -1 -1 $-1 $209 $201 $196 $241 forward $193 $-1 #
edge $264 -1 -1 $-1 $204 -5 $243 5 $196 $265 forward @7 unknown T -49.999999999999957 287.10300000000001 -199.98868770766683 50.00000000000005 287.10300000000001 -199.98868770766683 #
name_attrib-gen-attrib $-1 -1 $266 $-1 $197 2 1 1 1 1 1 1 1 1 1 1 1 1 1 0 1 1 1 @3 eif #
vertex $267 -1 -1 $-1 $215 $268 #
straight-curve $-1 -1 -1 $-1 50.000000000000043 287.10300000000001 -199.98868770766683 0 10 0 I I #
integer_attrib-name_attrib-gen-attrib $-1 -1 $-1 $198 $140 2 1 1 1 1 1 1 1 1 1 1 1 1 1 0 1 1 1 @3 pid 8 #
integer_attrib-name_attrib-gen-attrib $-1 -1 $-1 $-1 $199 2 1 1 1 1 1 1 1 1 1 1 1 1 1 0 1 1 1 @3 pid 7 #
point $-1 -1 -1 $-1 50.000000000000043 287.60599999999999 -199.98868770766683 #
name_attrib-gen-attrib $-1 -1 $269 $-1 $202 2 1 1 1 1 1 1 1 1 1 1 1 1 1 0 1 1 1 @3 eif #
straight-curve $-1 -1 -1 $-1 -50 287.10300000000001 0.011312292333156259 2.4492935982947061e-15 0 -10 I I #
integer_attrib-name_attrib-gen-attrib $-1 -1 $-1 $203 $142 2 1 1 1 1 1 1 1 1 1 1 1 1 1 0 1 1 1 @3 pid 6 #
integer_attrib-name_attrib-gen-attrib $-1 -1 $-1 $-1 $204 2 1 1 1 1 1 1 1 1 1 1 1 1 1 0 1 1 1 @3 pid 6 #
point $-1 -1 -1 $-1 -49.999999999999957 287.10300000000001 -199.98868770766683 #
integer_attrib-name_attrib-gen-attrib $-1 -1 $-1 $210 $147 2 1 1 1 1 1 1 1 1 1 1 1 1 1 0 1 1 1 @3 pid 3 #
name_attrib-gen-attrib $-1 -1 $270 $-1 $215 2 1 1 1 1 1 1 1 1 1 1 1 1 1 0 1 1 1 @3 eif #
straight-curve $-1 -1 -1 $-1 50 287.10300000000001 0.011312292333180754 2.4492935982947061e-15 0 -10 I I #
integer_attrib-name_attrib-gen-attrib $-1 -1 $-1 $219 $155 2 1 1 1 1 1 1 1 1 1 1 1 1 1 0 1 1 1 @3 pid 11 #
name_attrib-gen-attrib $-1 -1 $271 $-1 $223 2 1 1 1 1 1 1 1 1 1 1 1 1 1 0 1 1 1 @3 eif #
straight-curve $-1 -1 -1 $-1 4.8984486609634431e-14 285 -199.98868770766683 10 0 2.4492935982947061e-15 I I #
integer_attrib-name_attrib-gen-attrib $-1 -1 $-1 $224 $167 2 1 1 1 1 1 1 1 1 1 1 1 1 1 0 1 1 1 @3 pid 9 #
integer_attrib-name_attrib-gen-attrib $-1 -1 $-1 $-1 $225 2 1 1 1 1 1 1 1 1 1 1 1 1 1 0 1 1 1 @3 pid 8 #
point $-1 -1 -1 $-1 42.500000000000043 285 -199.98868770766683 #
integer_attrib-name_attrib-gen-attrib $-1 -1 $-1 $230 $172 2 1 1 1 1 1 1 1 1 1 1 1 1 1 0 1 1 1 @3 pid 7 #
integer_attrib-name_attrib-gen-attrib $-1 -1 $-1 $236 $185 2 1 1 1 1 1 1 1 1 1 1 1 1 1 0 1 1 1 @3 pid 12 #
name_attrib-gen-attrib $-1 -1 $272 $-1 $241 2 1 1 1 1 1 1 1 1 1 1 1 1 1 0 1 1 1 @3 eif #
straight-curve $-1 -1 -1 $-1 4.8984486609634431e-14 287.10300000000001 -199.98868770766683 10 0 2.4492935982947061e-15 I I #
integer_attrib-name_attrib-gen-attrib $-1 -1 $-1 $242 $197 2 1 1 1 1 1 1 1 1 1 1 1 1 1 0 1 1 1 @3 pid 9 #
integer_attrib-name_attrib-gen-attrib $-1 -1 $-1 $-1 $243 2 1 1 1 1 1 1 1 1 1 1 1 1 1 0 1 1 1 @3 pid 8 #
point $-1 -1 -1 $-1 50.000000000000043 287.10300000000001 -199.98868770766683 #
integer_attrib-name_attrib-gen-attrib $-1 -1 $-1 $248 $202 2 1 1 1 1 1 1 1 1 1 1 1 1 1 0 1 1 1 @3 pid 7 #
integer_attrib-name_attrib-gen-attrib $-1 -1 $-1 $254 $215 2 1 1 1 1 1 1 1 1 1 1 1 1 1 0 1 1 1 @3 pid 12 #
integer_attrib-name_attrib-gen-attrib $-1 -1 $-1 $257 $223 2 1 1 1 1 1 1 1 1 1 1 1 1 1 0 1 1 1 @3 pid 10 #
integer_attrib-name_attrib-gen-attrib $-1 -1 $-1 $264 $241 2 1 1 1 1 1 1 1 1 1 1 1 1 1 0 1 1 1 @3 pid 10 #
End-of-ACIS-data 